<svg xmlns="http://www.w3.org/2000/svg" viewBox="0 0 360 720" role="img" aria-label="Временная 2D модель баскетболиста">
  <defs>
    <linearGradient id="skin" x1="0" y1="0" x2="1" y2="1">
      <stop offset="0" stop-color="#d9a17c"/>
      <stop offset="1" stop-color="#a96f4e"/>
    </linearGradient>
    <linearGradient id="kit" x1="0" y1="0" x2="1" y2="1">
      <stop offset="0" stop-color="#343936"/>
      <stop offset="1" stop-color="#151816"/>
    </linearGradient>
    <filter id="shadow" x="-30%" y="-20%" width="160%" height="150%">
      <feGaussianBlur stdDeviation="8"/>
    </filter>
  </defs>
  <ellipse cx="180" cy="700" rx="90" ry="13" fill="#000" opacity=".28" filter="url(#shadow)"/>
  <g stroke="#0b0d0c" stroke-opacity=".28" stroke-width="4" stroke-linejoin="round">
    <circle cx="180" cy="75" r="52" fill="url(#skin)"/>
    <path d="M140 48c11-34 68-42 86-4 7 14 5 29 1 39-9-20-26-31-51-30-15 1-26 7-37 18-2-8-3-15 1-23Z" fill="#2e211a" stroke="none"/>
    <path d="M152 119h56l14 31-84 1 14-32Z" fill="url(#skin)"/>
    <path d="M114 146c15-13 42-21 66-21 25 0 50 8 66 21l-15 212H129l-15-212Z" fill="url(#kit)"/>
    <path d="M130 150 93 176 48 327c-5 18 5 34 21 39 16 4 29-6 33-22l43-134-15-60Z" fill="url(#skin)"/>
    <path d="M230 150 267 176l45 151c5 18-5 34-21 39-16 4-29-6-33-22l-43-134 15-60Z" fill="url(#skin)"/>
    <path d="M127 330h106l17 118-51 7-19-78-19 78-51-7 17-118Z" fill="#252a27"/>
    <path d="M121 438 166 444l-13 198c-2 25-14 37-33 35-20-2-29-17-25-40l26-199Z" fill="url(#skin)"/>
    <path d="m194 444 45-6 26 199c4 23-5 38-25 40-19 2-31-10-33-35l-13-198Z" fill="url(#skin)"/>
    <path d="M92 637h64l11 50c-19 13-66 13-92 3l17-53Z" fill="#f0f0ec"/>
    <path d="M204 637h64l17 53c-26 10-73 10-92-3l11-50Z" fill="#f0f0ec"/>
  </g>
  <path d="M129 183h102" stroke="#ef7d00" stroke-width="8" opacity=".9"/>
  <text x="180" y="270" text-anchor="middle" fill="#f4f1ea" font-family="Arial,sans-serif" font-size="44" font-weight="800">MSKBA</text>
  <text x="180" y="316" text-anchor="middle" fill="#ef7d00" font-family="Arial,sans-serif" font-size="36" font-weight="900">00</text>
</svg>
